<mxfile host="Electron" modified="2023-08-14T04:26:40.923Z" agent="Mozilla/5.0 (Windows NT 10.0; Win64; x64) AppleWebKit/537.36 (KHTML, like Gecko) draw.io/21.6.8 Chrome/114.0.5735.289 Electron/25.5.0 Safari/537.36" etag="XsfSzIPgLoUJ5bsUAxiQ" version="21.6.8" type="device" pages="5">
  <diagram name="9.28" id="hbYfScMPZ5U02vQPvAlg">
    <mxGraphModel dx="880" dy="511" grid="1" gridSize="10" guides="1" tooltips="1" connect="1" arrows="1" fold="1" page="1" pageScale="1" pageWidth="1169" pageHeight="827" math="0" shadow="0">
      <root>
        <mxCell id="0" />
        <mxCell id="1" parent="0" />
        <mxCell id="-ugUWGAGpVQuXFRxwhlh-1" value="&lt;u&gt;streetName : String&lt;br&gt;&lt;/u&gt;&quot;S. Crown Street&quot;" style="fontStyle=0;html=1;whiteSpace=wrap;" vertex="1" parent="1">
          <mxGeometry width="140" height="60" as="geometry" />
        </mxCell>
        <mxCell id="RlK_Say4wmG5ERe2VgUF-1" value="&lt;b&gt;Figure 9.28 Specification of an Instance of String&lt;/b&gt;" style="text;html=1;align=left;verticalAlign=middle;resizable=0;points=[];autosize=1;strokeColor=none;fillColor=none;fontSize=11;fontFamily=Helvetica;fontColor=default;" vertex="1" parent="1">
          <mxGeometry y="60" width="280" height="30" as="geometry" />
        </mxCell>
      </root>
    </mxGraphModel>
  </diagram>
  <diagram id="rQ8q027zdvtOzqYosd6J" name="9.29">
    <mxGraphModel dx="880" dy="511" grid="1" gridSize="10" guides="1" tooltips="1" connect="1" arrows="1" fold="1" page="1" pageScale="1" pageWidth="1169" pageHeight="827" math="0" shadow="0">
      <root>
        <mxCell id="0" />
        <mxCell id="1" parent="0" />
        <mxCell id="ZcEr9kvTReRAFUXYAdHO-1" value="&lt;u style=&quot;font-weight: normal;&quot;&gt;myAddress : Address&lt;/u&gt;" style="swimlane;fontStyle=1;align=center;verticalAlign=middle;childLayout=stackLayout;horizontal=1;startSize=29;horizontalStack=0;resizeParent=1;resizeParentMax=0;resizeLast=0;collapsible=0;marginBottom=0;html=1;whiteSpace=wrap;" vertex="1" parent="1">
          <mxGeometry x="10" y="10" width="200" height="80" as="geometry" />
        </mxCell>
        <mxCell id="ZcEr9kvTReRAFUXYAdHO-2" value="streetName = &quot;S. Crown Street&quot;&lt;br&gt;streetNumber: Integer = 381" style="text;html=1;strokeColor=none;fillColor=none;align=left;verticalAlign=middle;spacingLeft=4;spacingRight=4;overflow=hidden;rotatable=0;points=[[0,0.5],[1,0.5]];portConstraint=eastwest;whiteSpace=wrap;" vertex="1" parent="ZcEr9kvTReRAFUXYAdHO-1">
          <mxGeometry y="29" width="200" height="51" as="geometry" />
        </mxCell>
        <mxCell id="_XOZ7gRPdVKlENeYhgoP-1" value="&lt;b&gt;Figure 9.29 Slots with values&lt;/b&gt;" style="text;html=1;align=left;verticalAlign=middle;resizable=0;points=[];autosize=1;strokeColor=none;fillColor=none;fontSize=11;fontFamily=Helvetica;fontColor=default;" vertex="1" parent="1">
          <mxGeometry x="10" y="90" width="170" height="30" as="geometry" />
        </mxCell>
      </root>
    </mxGraphModel>
  </diagram>
  <diagram id="y4XJZg_B_WbMK_UXvKPP" name="9.30">
    <mxGraphModel dx="880" dy="511" grid="1" gridSize="10" guides="1" tooltips="1" connect="1" arrows="1" fold="1" page="1" pageScale="1" pageWidth="1169" pageHeight="827" math="0" shadow="0">
      <root>
        <mxCell id="0" />
        <mxCell id="1" parent="0" />
        <mxCell id="I_37nj5ARgcSenRjo_8Z-1" style="edgeStyle=orthogonalEdgeStyle;rounded=0;orthogonalLoop=1;jettySize=auto;html=1;exitX=1;exitY=0.5;exitDx=0;exitDy=0;entryX=0;entryY=0.5;entryDx=0;entryDy=0;endArrow=none;endFill=0;" edge="1" parent="1" source="I_37nj5ARgcSenRjo_8Z-4" target="I_37nj5ARgcSenRjo_8Z-5">
          <mxGeometry relative="1" as="geometry" />
        </mxCell>
        <mxCell id="I_37nj5ARgcSenRjo_8Z-2" value="father" style="edgeLabel;html=1;align=center;verticalAlign=middle;resizable=0;points=[];" vertex="1" connectable="0" parent="I_37nj5ARgcSenRjo_8Z-1">
          <mxGeometry x="-0.3833" relative="1" as="geometry">
            <mxPoint x="-19" y="10" as="offset" />
          </mxGeometry>
        </mxCell>
        <mxCell id="I_37nj5ARgcSenRjo_8Z-3" value="son" style="edgeLabel;html=1;align=center;verticalAlign=middle;resizable=0;points=[];" vertex="1" connectable="0" parent="I_37nj5ARgcSenRjo_8Z-1">
          <mxGeometry x="0.7167" y="1" relative="1" as="geometry">
            <mxPoint x="2" y="10" as="offset" />
          </mxGeometry>
        </mxCell>
        <mxCell id="I_37nj5ARgcSenRjo_8Z-4" value="&lt;u&gt;Don : Person&lt;/u&gt;" style="fontStyle=0;html=1;whiteSpace=wrap;" vertex="1" parent="1">
          <mxGeometry width="120" height="40" as="geometry" />
        </mxCell>
        <mxCell id="I_37nj5ARgcSenRjo_8Z-5" value="&lt;u&gt;Josh : Person&lt;/u&gt;" style="fontStyle=0;html=1;whiteSpace=wrap;" vertex="1" parent="1">
          <mxGeometry x="240" width="120" height="40" as="geometry" />
        </mxCell>
        <mxCell id="pv4cXLLjaeV9V9lynFqK-1" value="&lt;b&gt;Figure 9.30 InstanceSpecifications representing two objects connected by a link&lt;/b&gt;" style="text;html=1;align=left;verticalAlign=middle;resizable=0;points=[];autosize=1;strokeColor=none;fillColor=none;fontSize=11;fontFamily=Helvetica;fontColor=default;" vertex="1" parent="1">
          <mxGeometry y="40" width="440" height="30" as="geometry" />
        </mxCell>
      </root>
    </mxGraphModel>
  </diagram>
  <diagram id="Ll1lB3tpmj9RrxCwnXS0" name="9.31">
    <mxGraphModel dx="880" dy="511" grid="1" gridSize="10" guides="1" tooltips="1" connect="1" arrows="1" fold="1" page="1" pageScale="1" pageWidth="1169" pageHeight="827" math="0" shadow="0">
      <root>
        <mxCell id="0" />
        <mxCell id="1" parent="0" />
        <mxCell id="HbE7tgy4VWw_6VjNxMhB-1" value="&lt;u&gt;:Window&lt;/u&gt;" style="swimlane;fontStyle=0;align=center;verticalAlign=top;childLayout=stackLayout;horizontal=1;startSize=40;horizontalStack=0;resizeParent=1;resizeParentMax=0;resizeLast=0;collapsible=0;marginBottom=0;html=1;whiteSpace=wrap;" vertex="1" parent="1">
          <mxGeometry x="20" y="20" width="120" height="80" as="geometry" />
        </mxCell>
        <mxCell id="HbE7tgy4VWw_6VjNxMhB-2" value="size = medium" style="text;html=1;strokeColor=none;fillColor=none;align=left;verticalAlign=middle;spacingLeft=4;spacingRight=4;overflow=hidden;rotatable=0;points=[[0,0.5],[1,0.5]];portConstraint=eastwest;whiteSpace=wrap;" vertex="1" parent="HbE7tgy4VWw_6VjNxMhB-1">
          <mxGeometry y="40" width="120" height="40" as="geometry" />
        </mxCell>
        <mxCell id="HbE7tgy4VWw_6VjNxMhB-3" value="&lt;u&gt;medium : Area&lt;/u&gt;" style="fontStyle=0;html=1;whiteSpace=wrap;" vertex="1" parent="1">
          <mxGeometry x="220" y="20" width="120" height="40" as="geometry" />
        </mxCell>
        <mxCell id="QVWY9ivaEttlEzyzC2nh-1" value="&lt;b&gt;Figure 9.31 InstanceValue represented textually&lt;/b&gt;" style="text;html=1;align=left;verticalAlign=middle;resizable=0;points=[];autosize=1;strokeColor=none;fillColor=none;fontSize=11;fontFamily=Helvetica;fontColor=default;" vertex="1" parent="1">
          <mxGeometry x="20" y="100" width="270" height="30" as="geometry" />
        </mxCell>
      </root>
    </mxGraphModel>
  </diagram>
  <diagram id="yg3ED3_A05lVjSU9du5B" name="9.32">
    <mxGraphModel dx="880" dy="511" grid="1" gridSize="10" guides="1" tooltips="1" connect="1" arrows="1" fold="1" page="1" pageScale="1" pageWidth="1169" pageHeight="827" math="0" shadow="0">
      <root>
        <mxCell id="0" />
        <mxCell id="1" parent="0" />
        <mxCell id="Q-e8QEPr5rVDXA3QkPyM-1" style="edgeStyle=orthogonalEdgeStyle;rounded=0;orthogonalLoop=1;jettySize=auto;html=1;exitX=1;exitY=0.5;exitDx=0;exitDy=0;entryX=0;entryY=0.5;entryDx=0;entryDy=0;endArrow=openThin;endFill=0;endSize=12;" edge="1" parent="1" source="Q-e8QEPr5rVDXA3QkPyM-3" target="Q-e8QEPr5rVDXA3QkPyM-4">
          <mxGeometry relative="1" as="geometry" />
        </mxCell>
        <mxCell id="Q-e8QEPr5rVDXA3QkPyM-2" value="size" style="edgeLabel;html=1;align=center;verticalAlign=middle;resizable=0;points=[];" vertex="1" connectable="0" parent="Q-e8QEPr5rVDXA3QkPyM-1">
          <mxGeometry x="0.475" y="-1" relative="1" as="geometry">
            <mxPoint x="-8" y="8" as="offset" />
          </mxGeometry>
        </mxCell>
        <mxCell id="Q-e8QEPr5rVDXA3QkPyM-3" value="&lt;u&gt;:Window&lt;/u&gt;" style="fontStyle=0;html=1;whiteSpace=wrap;" vertex="1" parent="1">
          <mxGeometry width="80" height="40" as="geometry" />
        </mxCell>
        <mxCell id="Q-e8QEPr5rVDXA3QkPyM-4" value="&lt;u&gt;medium : Area&lt;/u&gt;" style="fontStyle=0;html=1;whiteSpace=wrap;" vertex="1" parent="1">
          <mxGeometry x="160" width="120" height="40" as="geometry" />
        </mxCell>
        <mxCell id="VxLZi3m14wXqLNnmGqv3-1" value="&lt;b&gt;Figure 9.32 InstanceValue represented graphically&lt;/b&gt;" style="text;html=1;align=left;verticalAlign=middle;resizable=0;points=[];autosize=1;strokeColor=none;fillColor=none;fontSize=11;fontFamily=Helvetica;fontColor=default;" vertex="1" parent="1">
          <mxGeometry y="40" width="290" height="30" as="geometry" />
        </mxCell>
      </root>
    </mxGraphModel>
  </diagram>
</mxfile>
